<svg id="Layer_1" data-name="Layer 1" xmlns="http://www.w3.org/2000/svg" viewBox="0 0 30 30"><defs><style>.cls-1{fill:#663600;}.cls-2{fill:#ff6707;}</style></defs><title>halloween_donut17</title><circle class="cls-1" cx="15.29" cy="14.93" r="14.71"/><path class="cls-2" d="M3.07,17.64a4,4,0,0,1,2.26.82l12.09,8.76a1.51,1.51,0,0,0,1.65.34.62.62,0,0,0,0-.55,2.38,2.38,0,0,0-.78-1l-16-11.81c-1.51-1.11-2-2.92-1.21-4s2.68-1.16,4.18,0L23.79,23.63a1,1,0,1,0,.84-1.14L5.45,8.45c-1.51-1.11-2-2.92-1.21-4s2.68-1.16,4.18,0l18,13.09a2.37,2.37,0,0,0,1.11.47.63.63,0,0,0,.54-.12,1.51,1.51,0,0,0-.82-1.48L12,5.13a4,4,0,0,1-1.46-1.95,2.26,2.26,0,0,1,.25-2.09C11.67,0,13.51-.07,15,1l10.8,7.84a2.37,2.37,0,0,0,1.11.47.64.64,0,0,0,.54-.12,1.48,1.48,0,0,0-.79-1.45C24.3,6.3,18.74,2.71,18.19,1.22A.91.91,0,0,1,19.9.6h0c.24.54,3.48,3,7.79,5.67h.06A4,4,0,0,1,29.2,8.22,2.15,2.15,0,0,1,27,11.13a4,4,0,0,1-2.27-.82L14,2.47A2.37,2.37,0,0,0,12.84,2a.63.63,0,0,0-.54.12.62.62,0,0,0,0,.55,2.38,2.38,0,0,0,.78,1L28.26,14.87a4,4,0,0,1,1.46,1.95,2.26,2.26,0,0,1-.25,2.09c-.84,1.14-2.68,1.16-4.18,0L7.33,5.88a2.37,2.37,0,0,0-1.11-.47.64.64,0,0,0-.54.12A1.51,1.51,0,0,0,6.51,7L25.63,21.14c1.51,1.11,2,2.92,1.21,4s-2.68,1.16-4.18,0L4.16,11.73a1.51,1.51,0,0,0-1.65-.34,1.51,1.51,0,0,0,.82,1.48l16,11.81c1.51,1.11,2,2.92,1.21,4s-2.68,1.16-4.18,0L4.22,20a2.37,2.37,0,0,0-1.11-.47.64.64,0,0,0-.54.12,1.5,1.5,0,0,0,.8,1.46c.73.49,6.69,4.52,8.25,7.42a.91.91,0,1,1-1.59.89h0c-1.17-2.15-5.94-5.62-7.7-6.81h0A4,4,0,0,1,.88,20.63a2.15,2.15,0,0,1,2.19-3Z"/></svg>