<svg id="Layer_1" data-name="Layer 1" xmlns="http://www.w3.org/2000/svg" viewBox="0 0 30 30"><defs><style>.cls-1{fill:#ee4699;}.cls-2{fill:#ff6707;}.cls-3{fill:#663600;}.cls-4{fill:#836140;}.cls-5{fill:#f57f3a;}</style></defs><title>halloween_donut17</title><circle class="cls-1" cx="15.05" cy="15.07" r="14.95"/><path d="M18,29.36a.27.27,0,0,1-.31.21h0l-1.15-.28a.27.27,0,0,1-.2-.32h0a.27.27,0,0,1,.32-.2h0l1.14.28a.27.27,0,0,1,.2.32h0Z"/><path d="M23.89,8.45a.27.27,0,0,1-.32.2h0l-1.14-.28a.27.27,0,0,1-.2-.32h0a.27.27,0,0,1,.32-.2h0l1.14.28a.27.27,0,0,1,.2.32Z"/><path d="M20.77,10.51a.27.27,0,0,1-.32.2h0l-1.14-.28a.27.27,0,0,1-.2-.32h0a.27.27,0,0,1,.32-.2h0l1.14.28a.27.27,0,0,1,.2.32Z"/><path d="M19.06,19.66a.27.27,0,0,1-.32.2h0l-1.14-.28a.27.27,0,0,1-.2-.32h0a.27.27,0,0,1,.32-.2h0l1.14.28a.27.27,0,0,1,.2.32Z"/><path d="M8.16,7.64a.27.27,0,0,1,.26-.28h1.2a.27.27,0,0,1,.28.26h0a.27.27,0,0,1-.26.28H8.45a.27.27,0,0,1-.28-.26h0Z"/><path d="M4,13.71a.27.27,0,0,1,.26-.28H5.48a.27.27,0,0,1,.28.26h0A.27.27,0,0,1,5.5,14H4.31A.27.27,0,0,1,4,13.72Z"/><path d="M3.32,20.63a.27.27,0,0,1,.3-.23h0l1.17.16a.27.27,0,0,1,.23.3H5a.27.27,0,0,1-.3.23h0l-1.22-.16a.27.27,0,0,1-.23-.3h.05Z"/><path d="M13.55,2.07a.27.27,0,0,1,.07-.37h0l1-.63a.27.27,0,0,1,.37.07h0a.27.27,0,0,1-.07.37h0l-1,.63a.27.27,0,0,1-.37-.07Z"/><path d="M3.28,6.84a.27.27,0,0,1,.07-.37h0l1-.63a.27.27,0,0,1,.37.07h0a.27.27,0,0,1-.07.37h0l-1,.63a.27.27,0,0,1-.37-.07Z"/><path d="M23.26,23.2a.27.27,0,0,1-.23-.3h0l.17-1.16a.27.27,0,0,1,.3-.23h0a.27.27,0,0,1,.23.3h0L23.57,23a.27.27,0,0,1-.3.23h0Z"/><path d="M12.17,25.14a.27.27,0,0,1,0-.38h0l.76-.89a.27.27,0,0,1,.38,0h0a.27.27,0,0,1,0,.38h0l-.77.89a.27.27,0,0,1-.38,0h0Z"/><path d="M1.17,11.25a.27.27,0,0,1,.35-.12l1.06.51A.27.27,0,0,1,2.7,12h0a.27.27,0,0,1-.35.13h0l-1.06-.51a.27.27,0,0,1-.13-.35h0Z"/><path d="M25.44,17.85a.27.27,0,0,1-.1-.37h0l.61-1a.27.27,0,0,1,.37-.1h0a.27.27,0,0,1,.1.37h0l-.61,1a.27.27,0,0,1-.37.1Z"/><path d="M24.84,4.89a.27.27,0,0,1,.31-.22h0l1.16.22a.27.27,0,0,1,.22.31h0a.27.27,0,0,1-.31.22h0L25.05,5.2a.27.27,0,0,1-.22-.31Z"/><path d="M4,5a.27.27,0,0,1,.31-.22h0l1.16.21a.27.27,0,0,1,.22.31h0a.27.27,0,0,1-.31.22h0L4.22,5.26A.27.27,0,0,1,4,5H4Z"/><path d="M22.35,20.53a.27.27,0,0,1-.29.25h0l-1.17-.08a.27.27,0,0,1-.25-.29h0a.27.27,0,0,1,.29-.25h0l1.17.08a.27.27,0,0,1,.25.29Z"/><path d="M21.29,3.74A.27.27,0,0,1,21,4h0l-1.17-.08a.27.27,0,0,1-.25-.29h0a.27.27,0,0,1,.29-.25h0L21,3.45a.27.27,0,0,1,.25.29Z"/><path d="M29,12.83a.27.27,0,0,1-.29.25h0L27.56,13a.27.27,0,0,1-.25-.29h0a.27.27,0,0,1,.29-.25h0l1.16,0a.27.27,0,0,1,.25.29h0Z"/><path d="M12.53,5.23a.27.27,0,0,1-.29.25h0L11.08,5.4a.27.27,0,0,1-.25-.29h0a.27.27,0,0,1,.29-.25h0l1.17.08a.27.27,0,0,1,.25.29Z"/><path d="M7.87,15.16a.27.27,0,0,1-.29.25h0l-1.13-.08A.27.27,0,0,1,6.21,15h0a.27.27,0,0,1,.25-.26h0l1.17.08a.27.27,0,0,1,.25.29h0Z"/><path d="M8,16.83a.27.27,0,0,1,.14.35h0l-.48,1.08a.27.27,0,0,1-.35.14h0a.27.27,0,0,1-.14-.35h0L7.66,17A.27.27,0,0,1,8,16.83Z"/><path d="M10.78,27.18a.27.27,0,0,1,.14.35h0l-.5,1.08a.27.27,0,0,1-.35.14h0a.27.27,0,0,1-.14-.35h0l.49-1.08a.27.27,0,0,1,.35-.14h0Z"/><path d="M10.76,24.88a.27.27,0,0,1-.27.27H9.31A.27.27,0,0,1,9,24.88H9a.27.27,0,0,1,.27-.27h1.18a.27.27,0,0,1,.27.27h0Z"/><path d="M.53,14.6a.27.27,0,0,1-.13-.35h0l.5-1.06a.27.27,0,0,1,.35-.13h0a.27.27,0,0,1,.13.35h0l-.47,1a.27.27,0,0,1-.35.13h0Z"/><path d="M20.56,26.39a.27.27,0,0,1-.13-.35h0l.5-1.06a.27.27,0,0,1,.35-.13h0a.27.27,0,0,1,.13.35h0l-.5,1.06a.27.27,0,0,1-.35.13Z"/><path d="M4.42,25.42a.27.27,0,0,1-.13-.35h0L4.8,24a.27.27,0,0,1,.35-.13h0a.27.27,0,0,1,.13.35h0l-.5,1.06a.27.27,0,0,1-.35.13h0Z"/><path d="M24.87,8.94a.27.27,0,0,1,.22.31h0l-.22,1.16a.27.27,0,0,1-.31.22h0a.27.27,0,0,1-.22-.31h0l.22-1.16a.27.27,0,0,1,.31-.22Z"/><path d="M18.82,3.42a.27.27,0,0,1,.22.31h0L18.82,4.9a.27.27,0,0,1-.31.22h0a.27.27,0,0,1-.22-.31h0l.22-1.15a.27.27,0,0,1,.31-.22h0Z"/><path d="M2.85,15.85a.27.27,0,0,1,.22.31h0l-.22,1.15a.27.27,0,0,1-.31.22h0a.27.27,0,0,1-.22-.31h0l.19-1.16a.27.27,0,0,1,.31-.22h0Z"/><path d="M16,2.13a.27.27,0,0,1,.16.34h0l-.4,1.12a.27.27,0,0,1-.34.16h0a.27.27,0,0,1-.16-.34h0l.4-1.11A.27.27,0,0,1,16,2.14h0Z"/><path d="M28.21,15.9a.27.27,0,0,1,.34.15h0l.42,1.1a.27.27,0,0,1-.15.34h0a.27.27,0,0,1-.34-.15h0L28,16.25a.27.27,0,0,1,.15-.34Z"/><path d="M6,19.7a.27.27,0,0,1,.34-.16h0l1.07.4a.27.27,0,0,1,.16.34h0a.27.27,0,0,1-.34.16h0L6.15,20A.27.27,0,0,1,6,19.69H6Z"/><path d="M3.15,10.42a.27.27,0,0,1,.35.09l.72.93a.27.27,0,0,1,0,.38h0a.27.27,0,0,1-.38,0h0l-.72-.93a.27.27,0,0,1,0-.38h0Z"/><path d="M20.4,6.11a.27.27,0,0,1,0,.38l-.72.92a.27.27,0,0,1-.37.06h0a.27.27,0,0,1,0-.38h0L20,6.16a.27.27,0,0,1,.38,0h0Z"/><path d="M10.41,23.19a.27.27,0,0,1,.38,0h0l.85.8a.27.27,0,0,1,0,.38h0a.27.27,0,0,1-.38,0h0l-.85-.81a.27.27,0,0,1,0-.38h0Z"/><path d="M26.55,19.28a.27.27,0,0,1,.16.34h0l-.44,1.09a.27.27,0,0,1-.34.16h0a.27.27,0,0,1-.16-.34h0l.47-1.12a.27.27,0,0,1,.34-.16h0Z"/><path d="M27.64,10.61a.27.27,0,0,1,.16.34v0h0l-.44,1.09a.27.27,0,0,1-.34.16h0a.27.27,0,0,1-.16-.34h0l.44-1.09a.27.27,0,0,1,.34-.16h0Z"/><path d="M1.52,18.74a.27.27,0,0,1,.16.34v0h0l-.44,1.09a.27.27,0,0,1-.34.16h0A.27.27,0,0,1,.72,20h0l.44-1.09a.27.27,0,0,1,.34-.16h0Z"/><path d="M9.25,21.71a.27.27,0,0,1-.19-.33h0l.37-1.13a.27.27,0,0,1,.32-.2h0a.27.27,0,0,1,.19.33h0l-.33,1.13a.27.27,0,0,1-.33.19h0Z"/><path d="M14.45,28.81a.27.27,0,0,1-.19-.33h0l.33-1.16a.27.27,0,0,1,.33-.19h0a.27.27,0,0,1,.19.33h0l-.33,1.13a.27.27,0,0,1-.33.19h0Z"/><path d="M21.1,11.57a.27.27,0,0,1,.29-.24h0l1.17.17a.27.27,0,0,1,.24.29h0a.27.27,0,0,1-.29.24h0l-1.22-.16a.27.27,0,0,1-.24-.29h0Z"/><path d="M14.88,7.43a.27.27,0,0,1-.37.06h0l-1-.69a.27.27,0,0,1-.06-.37h0a.27.27,0,0,1,.37-.06h0l1,.69a.27.27,0,0,1,.06.37Z"/><path d="M10.7,2.42a.27.27,0,0,1-.37.06h0l-.9-.7a.27.27,0,0,1-.06-.37h0a.27.27,0,0,1,.37-.06h0l1,.69a.27.27,0,0,1,.06.37H10.7Z"/><path d="M9.66,6.62a.27.27,0,0,1-.24-.29v0h0l.26-1.15A.27.27,0,0,1,10,4.93h0a.27.27,0,0,1,.21.31h0L10,6.41a.27.27,0,0,1-.31.21h0Z"/><path class="cls-2" d="M4,12.61a.27.27,0,0,1-.17.33h0l-1.13.34a.27.27,0,0,1-.33-.17h0a.27.27,0,0,1,.18-.33h0l1.13-.34A.27.27,0,0,1,4,12.6H4Z"/><path class="cls-2" d="M26.08,22.24a.27.27,0,0,1-.17.33h0l-1.13.34a.27.27,0,0,1-.33-.17h0a.27.27,0,0,1,.17-.33h0l1.13-.34a.27.27,0,0,1,.33.17Z"/><path class="cls-2" d="M22.85,4.46a.27.27,0,0,1-.17.33h0l-1.13.34A.27.27,0,0,1,21.21,5h0a.27.27,0,0,1,.12-.36l.05,0h0l1.13-.34a.27.27,0,0,1,.33.17h0Z"/><path class="cls-2" d="M9.76,4.12a.27.27,0,0,1-.38,0h0l-.95-.73a.27.27,0,0,1,0-.38h0a.27.27,0,0,1,.38,0h0l.9.76a.27.27,0,0,1,0,.38h0Z"/><path class="cls-2" d="M27.07,15.16a.27.27,0,0,1-.38,0h0l-.89-.76a.27.27,0,0,1,0-.38h0a.27.27,0,0,1,.38,0h0l.9.76a.27.27,0,0,1,0,.38h0Z"/><path class="cls-2" d="M27,24.44a.27.27,0,0,1-.38,0h0l-.9-.76a.27.27,0,0,1,0-.38h0a.27.27,0,0,1,.38,0h0l.9.76a.27.27,0,0,1,0,.38h0Z"/><path class="cls-2" d="M7.35,25.18a.27.27,0,0,1-.38,0H7l-.9-.76a.27.27,0,0,1,0-.38h0a.27.27,0,0,1,.38,0h0l.9.76a.27.27,0,0,1,0,.38h0Z"/><path class="cls-2" d="M16.25,28a.27.27,0,0,1-.11-.36h0l.56-1a.27.27,0,0,1,.36-.11h0a.27.27,0,0,1,.11.36h0l-.56,1a.27.27,0,0,1-.36.11Z"/><path class="cls-2" d="M8.16,19.71A.27.27,0,0,1,8,19.35h0l.56-1A.27.27,0,0,1,9,18.24H9a.27.27,0,0,1,.11.36h0l-.56,1a.27.27,0,0,1-.36.11Z"/><path class="cls-2" d="M14.56,5.91a.27.27,0,0,1-.1-.34l.56-1a.27.27,0,0,1,.33-.17h0a.27.27,0,0,1,.11.36h0l-.56,1a.27.27,0,0,1-.36.11h0Z"/><path class="cls-2" d="M26.72,7.64a.27.27,0,0,1-.11-.36h0l.56-1a.27.27,0,0,1,.36-.11h0a.27.27,0,0,1,.11.36h0l-.56,1a.27.27,0,0,1-.36.11Z"/><path class="cls-2" d="M16.34,1.62a.27.27,0,0,1-.11-.36h0l.56-1a.27.27,0,0,1,.36-.11h0a.27.27,0,0,1,.11.36h0l-.56,1a.27.27,0,0,1-.36.11Z"/><path class="cls-2" d="M2.29,7.1a.27.27,0,0,1,.38,0h0l.76.9a.27.27,0,0,1,0,.38h0a.27.27,0,0,1-.38,0H3l-.76-.9a.27.27,0,0,1,0-.38h0Z"/><path class="cls-2" d="M12.14,6.71a.27.27,0,0,1,.38,0h0l.76.89a.27.27,0,0,1,0,.38h0a.27.27,0,0,1-.38,0h0l-.76-.89a.27.27,0,0,1,0-.38h0Z"/><path d="M15.57,9.35a.27.27,0,0,1,.08.37h0l-.63,1a.27.27,0,0,1-.37.08h0a.27.27,0,0,1-.08-.37h0l.63-1a.27.27,0,0,1,.37-.08Z"/><path d="M15,12.12a.27.27,0,0,1,0-.38h0l.85-.81a.27.27,0,0,1,.38,0h0a.27.27,0,0,1,0,.38h0l-.89.82a.27.27,0,0,1-.38,0h0Z"/><path class="cls-2" d="M18.38,20.88a.27.27,0,0,1,.38,0h0l.76.89a.27.27,0,0,1,0,.38h0a.27.27,0,0,1-.38,0h0l-.76-.89a.27.27,0,0,1,0-.38h0Z"/><path class="cls-2" d="M3.56,17.68a.27.27,0,0,1-.1.36h0l-1,.58a.27.27,0,0,1-.36-.1h0a.27.27,0,0,1,.1-.36h0l1-.58a.27.27,0,0,1,.36.1h0Z"/><path class="cls-2" d="M14.86,22.72a.27.27,0,0,1-.1.36h0l-1,.58a.27.27,0,0,1-.36-.1h0a.27.27,0,0,1,.1-.36h0l1-.58a.27.27,0,0,1,.36.1h0Z"/><path class="cls-2" d="M22.45,27.32a.27.27,0,0,1-.18-.33v0l.37-1.12a.27.27,0,0,1,.34-.17h0a.27.27,0,0,1,.18.33v0l-.37,1.12a.27.27,0,0,1-.33.18h0Z"/><path class="cls-2" d="M23.69,10.63a.27.27,0,0,1-.35.13h0l-1-.51a.27.27,0,0,1-.13-.35h0a.27.27,0,0,1,.35-.13h0l1.06.51a.27.27,0,0,1,.13.35Z"/><path class="cls-2" d="M24,17.74a.27.27,0,0,1-.06.37h0l-1,.68a.27.27,0,0,1-.37-.06h0a.27.27,0,0,1,.06-.37h0l1-.68a.27.27,0,0,1,.37.06Z"/><path class="cls-3" d="M4.32,15.46a.27.27,0,0,0-.17-.33h0L3,14.78a.27.27,0,0,0-.33.17h0a.27.27,0,0,0,.17.33h0L4,15.63a.27.27,0,0,0,.33-.17Z"/><path class="cls-3" d="M26.08,6.65a.27.27,0,0,0-.17-.33h0L24.78,6a.27.27,0,0,0-.33.17h0a.27.27,0,0,0,.17.33h0l1.13.34a.27.27,0,0,0,.33-.17Z"/><path class="cls-3" d="M22.85,24.42a.27.27,0,0,0-.17-.33h0l-1.13-.35a.27.27,0,0,0-.33.17h0a.27.27,0,0,0,.17.33h0l1.13.34a.27.27,0,0,0,.33-.17h0Z"/><path class="cls-3" d="M7.37,22.95a.27.27,0,0,0,.16-.34v0L7.09,21.5a.27.27,0,0,0-.34-.16h0a.27.27,0,0,0-.16.34h0L7,22.78a.27.27,0,0,0,.34.16h0Z"/><path class="cls-3" d="M24.86,15.21a.27.27,0,0,0-.38,0h0l-.9.76a.27.27,0,0,0,0,.38h0a.27.27,0,0,0,.38,0h0l.9-.76a.27.27,0,0,0,0-.38h0Z"/><path class="cls-3" d="M8.64,4.33a.27.27,0,0,0-.38,0h0l-.9.76a.27.27,0,0,0,0,.38h0a.27.27,0,0,0,.38,0h0l.9-.76a.27.27,0,0,0,0-.38Z"/><path class="cls-3" d="M16.77,5.57a.27.27,0,0,0-.37-.05l-.05.05h0l-.66,1a.27.27,0,0,0,.06.37h0a.27.27,0,0,0,.37-.06h0l.66-1a.27.27,0,0,0,0-.31Z"/><path class="cls-3" d="M20.36,4.58a.27.27,0,0,0-.38,0h0l-.87.79a.27.27,0,0,0,0,.38h0a.27.27,0,0,0,.38,0h0L20.36,5a.27.27,0,0,0,0-.38Z"/><path class="cls-3" d="M10.67,6.47a.27.27,0,0,0-.11.36h0l.56,1a.27.27,0,0,0,.36.11h0a.27.27,0,0,0,.11-.36h0l-.56-1a.27.27,0,0,0-.36-.11Z"/><path class="cls-3" d="M24.62,23.89a.27.27,0,0,0-.11.36h0l.56,1a.27.27,0,0,0,.36.11h0a.27.27,0,0,0,.11-.36h0L25,24a.27.27,0,0,0-.36-.11Z"/><path class="cls-3" d="M18.85,25.26a.27.27,0,0,0-.11.36h0l.56,1a.27.27,0,0,0,.36.11h0a.27.27,0,0,0,.11-.36h0l-.56-1a.27.27,0,0,0-.36-.11Z"/><path class="cls-3" d="M10.17,18.54a.27.27,0,0,0-.11.36h0l.56,1A.27.27,0,0,0,11,20h0a.27.27,0,0,0,.11-.36h0l-.56-1a.27.27,0,0,0-.36-.11Z"/><path class="cls-3" d="M20.87,18.25a.27.27,0,0,0-.11.36h0l.56,1a.27.27,0,0,0,.36.11h0a.27.27,0,0,0,.11-.36h0l-.56-1a.27.27,0,0,0-.36-.11Z"/><path class="cls-3" d="M2.46,20.57a.27.27,0,0,0,.38,0h0l.76-.89a.27.27,0,0,0,0-.38h0a.27.27,0,0,0-.38,0h0l-.76.89a.27.27,0,0,0,0,.38h0Z"/><path class="cls-3" d="M14.09,25.83a.27.27,0,0,0,.38,0h0l.76-.89a.27.27,0,0,0,0-.38h0a.27.27,0,0,0-.38,0h0l-.76.89a.27.27,0,0,0,0,.38h0Z"/><path class="cls-3" d="M5.14,6.88a.27.27,0,0,0-.28.26h0V8.32a.27.27,0,0,0,.26.28h0a.27.27,0,0,0,.28-.26h0V7.16a.27.27,0,0,0-.26-.28h0Z"/><path class="cls-3" d="M12.39,3.8a.27.27,0,0,0-.1-.36h0l-1-.58a.27.27,0,0,0-.36.1h0a.27.27,0,0,0,.1.36h0l1,.58a.27.27,0,0,0,.36-.1Z"/><path class="cls-3" d="M23.51,3.07a.27.27,0,0,0-.18.33v0l.37,1.12A.27.27,0,0,0,24,4.7h0a.27.27,0,0,0,.18-.33h0l-.37-1.12a.27.27,0,0,0-.33-.18h0Z"/><path class="cls-3" d="M27.46,18a.27.27,0,0,0-.35-.13h0L26,18.41a.27.27,0,0,0-.13.35h0a.27.27,0,0,0,.35.13h0l1.06-.51a.27.27,0,0,0,.13-.35h0Z"/><path class="cls-3" d="M17.33,15.2a.27.27,0,0,0-.35-.13h0l-1.06.51a.27.27,0,0,0-.13.35h0a.27.27,0,0,0,.35.13h0l1.06-.51a.27.27,0,0,0,.14-.35h0Z"/><path class="cls-3" d="M24.87,11.55a.27.27,0,0,0,.33.18h0l1.12-.36A.27.27,0,0,0,26.5,11h0a.27.27,0,0,0-.33-.18h0L25,11.21a.27.27,0,0,0-.18.33Z"/><path class="cls-4" d="M29,18.16a.27.27,0,0,1-.06.37h0l-1,.68a.27.27,0,0,1-.37-.06h0a.27.27,0,0,1,.06-.37h0l1-.68a.27.27,0,0,1,.37.06Z"/><path class="cls-4" d="M17.08,25.57a.27.27,0,0,1-.38,0l-.93-.71a.27.27,0,0,1,0-.38h0a.27.27,0,0,1,.37-.05h0l.93.71a.27.27,0,0,1,.05.37h0Z"/><path class="cls-4" d="M16.4,4a.27.27,0,0,1,.38,0h0l.89.77a.27.27,0,0,1,0,.38h0a.27.27,0,0,1-.38,0h0l-.89-.77a.27.27,0,0,1,0-.38h0Z"/><path class="cls-4" d="M6,16.26a.27.27,0,0,1-.37-.07h0l-.64-1A.27.27,0,0,1,5,14.82H5a.27.27,0,0,1,.37.07h0l.64,1a.27.27,0,0,1-.07.37Z"/><path class="cls-4" d="M11.69,27.21a.27.27,0,0,1,0-.38h0l.88-.77a.27.27,0,0,1,.38,0h0a.27.27,0,0,1,0,.38h0l-.88.77a.27.27,0,0,1-.38,0Z"/><path class="cls-4" d="M26.5,9.77a.27.27,0,0,1,0-.38h0l.88-.77a.27.27,0,0,1,.38,0h0a.27.27,0,0,1,0,.38h0l-.88.77a.27.27,0,0,1-.38,0Z"/><path class="cls-4" d="M22,6.73a.27.27,0,0,1,0-.38h0l.88-.77a.27.27,0,0,1,.38,0h0a.27.27,0,0,1,0,.38h0l-.88.77a.27.27,0,0,1-.38,0Z"/><path class="cls-4" d="M7.2,8.17A.27.27,0,0,1,7,7.87H7l.17-1.16a.27.27,0,0,1,.3-.23h0a.27.27,0,0,1,.23.3h0L7.51,7.94a.27.27,0,0,1-.3.23h0Z"/><path class="cls-4" d="M29.09,11.5a.27.27,0,0,1-.38,0l-.77-.89a.27.27,0,0,1,0-.38h0a.27.27,0,0,1,.38,0h0l.77.89a.27.27,0,0,1,0,.38h0Z"/><path class="cls-4" d="M20.91,23.47a.27.27,0,0,1-.31-.22h0l-.18-1.16a.27.27,0,0,1,.22-.31h0A.27.27,0,0,1,21,22h0l.18,1.16a.27.27,0,0,1-.22.31Z"/><path class="cls-4" d="M3.21,22.7a.27.27,0,0,1,.13-.35h0l1.08-.46a.27.27,0,0,1,.35.13h0a.27.27,0,0,1-.13.35h0l-1.08.46a.27.27,0,0,1-.35-.13Z"/><path class="cls-4" d="M21,8.76a.27.27,0,0,1-.33-.17h0L20.3,7.48a.27.27,0,0,1,.17-.33h0a.27.27,0,0,1,.33.17h0l.36,1.12a.27.27,0,0,1-.17.33h0Z"/><path class="cls-4" d="M17.14,9.52a.27.27,0,0,1-.33-.17h0l-.36-1.13a.27.27,0,0,1,.17-.33h0a.27.27,0,0,1,.33.17h0l.38,1.12a.27.27,0,0,1-.17.33h0Z"/><path class="cls-4" d="M11.5,1.62a.27.27,0,0,1,0-.38l.92-.73a.27.27,0,0,1,.38,0h0a.27.27,0,0,1,0,.38h0l-.92.73a.27.27,0,0,1-.38,0Z"/><path class="cls-4" d="M.29,16.44a.27.27,0,0,1,0-.38l.92-.73a.27.27,0,0,1,.38,0h0a.27.27,0,0,1,0,.38h0l-.91.73a.27.27,0,0,1-.38,0h0Z"/><path class="cls-4" d="M24.08,12.76a.27.27,0,0,1,0,.38h0l-.83.83a.27.27,0,0,1-.38,0h0a.27.27,0,0,1,0-.38h0l.83-.83a.27.27,0,0,1,.38,0Z"/><path class="cls-4" d="M23,1.84a.27.27,0,0,1,0,.38h0l-.83.83a.27.27,0,0,1-.38,0h0a.27.27,0,0,1,0-.38h0l.83-.83a.27.27,0,0,1,.38,0Z"/><path class="cls-4" d="M7.64,26a.27.27,0,0,1,0,.38h0l-.83.83a.27.27,0,0,1-.38,0h0a.27.27,0,0,1,0-.38h0L7.25,26a.27.27,0,0,1,.38,0Z"/><path class="cls-4" d="M7.45,11.56a.27.27,0,0,1,0,.38h0l-.83.83a.27.27,0,0,1-.38,0h0a.27.27,0,0,1,0-.38h0l.83-.83a.27.27,0,0,1,.38,0Z"/><path d="M18.15,15.3a.27.27,0,0,1,.26-.28H19.6a.27.27,0,0,1,.28.26h0a.27.27,0,0,1-.26.28H18.43a.27.27,0,0,1-.28-.26Z"/><path d="M22,16.76a.27.27,0,0,1-.29.25h0l-1.17-.08a.27.27,0,0,1-.25-.29h0a.27.27,0,0,1,.29-.25h0l1.17,0a.27.27,0,0,1,.25.29h0Z"/><path class="cls-4" d="M20.1,17.86a.27.27,0,0,1-.37-.07h0l-.64-1a.27.27,0,0,1,.07-.37h0a.27.27,0,0,1,.37.07h0l.64,1a.27.27,0,0,1-.07.37Z"/><path class="cls-4" d="M21.52,13.16a.27.27,0,0,1,0,.38h0l-.83.83a.27.27,0,0,1-.38,0h0a.27.27,0,0,1,0-.38h0l.83-.83a.27.27,0,0,1,.38,0Z"/><path class="cls-4" d="M8.71,22.08a.27.27,0,0,1,.36.11h0l.48,1.08a.27.27,0,0,1-.13.36h0a.27.27,0,0,1-.36-.13h0l-.48-1.08a.27.27,0,0,1,.13-.36h0Z"/><path class="cls-4" d="M20.85,27.68a.27.27,0,0,1,0,.38h0l-.78.88a.27.27,0,0,1-.38,0h0a.27.27,0,0,1,0-.38h0l.78-.88a.27.27,0,0,1,.38,0Z"/><path class="cls-5" d="M18.25,24.35a.27.27,0,0,1-.37-.06h0l-.65-1a.27.27,0,0,1,.06-.37h0a.27.27,0,0,1,.37.06h0l.65,1a.27.27,0,0,1-.06.37Z"/><path class="cls-5" d="M25.76,8.86a.27.27,0,0,1-.37-.06h0l-.65-1a.27.27,0,0,1,.06-.37h0a.27.27,0,0,1,.43.12h0l.65,1a.27.27,0,0,1-.06.37h0Z"/><path class="cls-5" d="M25.79,13.71a.27.27,0,0,1-.37-.06h0l-.65-1a.27.27,0,0,1,.07-.37h0a.27.27,0,0,1,.37.06h0l.65,1a.27.27,0,0,1-.06.37h0Z"/><path class="cls-5" d="M2.33,10.91A.27.27,0,0,1,2,10.84H2l-.65-1a.27.27,0,0,1,.08-.33h0a.27.27,0,0,1,.37.06h0l.65,1a.27.27,0,0,1-.06.37h0Z"/><path class="cls-5" d="M13.28,4.36a.27.27,0,0,1,0-.38h0l.84-.82a.27.27,0,0,1,.38,0h0a.27.27,0,0,1,0,.38h0l-.84.82a.27.27,0,0,1-.38,0Z"/><path d="M14.47,19.15a.27.27,0,0,1-.29.25h0L13,19.32a.27.27,0,0,1-.25-.29h0a.27.27,0,0,1,.29-.25h0l1.17.08a.27.27,0,0,1,.25.29Z"/><path d="M16.41,21.13a.27.27,0,0,1-.37.06h0l-1-.69a.27.27,0,0,1-.06-.37h0a.27.27,0,0,1,.37-.06h0l1,.69a.27.27,0,0,1,.06.37Z"/><path class="cls-2" d="M16.1,19.61a.27.27,0,0,1-.11-.36h0l.56-1a.27.27,0,0,1,.36-.11h0a.27.27,0,0,1,.11.36h0l-.56,1a.27.27,0,0,1-.36.11Z"/><path class="cls-2" d="M13.68,20.4a.27.27,0,0,1,.38,0h0l.76.89a.27.27,0,0,1,0,.38h0a.27.27,0,0,1-.38,0h0l-.76-.89a.27.27,0,0,1,0-.38h0Z"/><path class="cls-3" d="M12.2,20.17a.27.27,0,0,0-.11.36h0l.56,1a.27.27,0,0,0,.36.11h0a.27.27,0,0,0,.11-.36h0l-.56-1a.27.27,0,0,0-.36-.11Z"/><path class="cls-5" d="M14.8,18.06a.27.27,0,0,1,0-.38h0l.84-.82a.27.27,0,0,1,.38,0h0a.27.27,0,0,1,0,.38h0l-.84.82a.27.27,0,0,1-.38,0Z"/><path class="cls-5" d="M18.58,8.85a.27.27,0,0,1-.32-.19h0L18,7.55a.27.27,0,0,1,.19-.32h0a.27.27,0,0,1,.32.19h0l.28,1.12a.27.27,0,0,1-.19.32h0Z"/><path class="cls-5" d="M14.9,8.61a.27.27,0,0,1-.21.32h0l-1.15.24A.27.27,0,0,1,13.23,9h0a.27.27,0,0,1,.21-.32h0l1.17-.24a.27.27,0,0,1,.32.21h0Z"/><path d="M14.14,17a.27.27,0,0,1-.32.2h0L12.68,17a.27.27,0,0,1-.2-.32h0a.27.27,0,0,1,.32-.2h0l1.14.28a.27.27,0,0,1,.2.32Z"/><path d="M11.48,14.92a.27.27,0,0,1,.06.37h0l-.72.92a.27.27,0,0,1-.38,0h0a.27.27,0,0,1,0-.38h0l.72-.93a.27.27,0,0,1,.38,0h-.06Z"/><path class="cls-2" d="M13.93,13.26a.27.27,0,0,1-.17.33h0l-1.13.34a.27.27,0,0,1-.33-.17h0a.27.27,0,0,1,.19-.28h0l1.13-.34a.27.27,0,0,1,.33.17h0Z"/><path class="cls-4" d="M14,15.71a.27.27,0,0,1,0-.38h0l.88-.77a.27.27,0,0,1,.38,0h0a.27.27,0,0,1,0,.38h0l-.93.8a.27.27,0,0,1-.38,0h0Z"/><path class="cls-4" d="M12.06,18.49a.27.27,0,0,1-.33-.17h0l-.33-1.12a.27.27,0,0,1,.17-.33h0a.27.27,0,0,1,.33.17h0l.36,1.12a.27.27,0,0,1-.17.33h0Z"/><path class="cls-5" d="M9.66,17.65a.27.27,0,0,1-.32-.19h0l-.28-1.14A.27.27,0,0,1,9.25,16h0a.27.27,0,0,1,.32.19h0l.28,1.14a.27.27,0,0,1-.19.32Z"/><path class="cls-5" d="M27.7,22.86a.27.27,0,0,1-.32-.19h0l-.28-1.14a.27.27,0,0,1,.19-.32h0a.27.27,0,0,1,.32.19h0l.28,1.14a.27.27,0,0,1-.19.32Z"/><path d="M17.78,10.34a.27.27,0,0,1,.16.34h0l-.45,1.08a.27.27,0,0,1-.34.16h0a.27.27,0,0,1-.16-.34h0l.44-1.07a.27.27,0,0,1,.34-.16h0Z"/><path class="cls-2" d="M17.33,13.31a.27.27,0,0,1-.17.33h0L16,14a.27.27,0,0,1-.33-.17h0a.27.27,0,0,1,.16-.33h0L17,13.14a.27.27,0,0,1,.33.17h0Z"/><path class="cls-5" d="M18.93,13.92a.27.27,0,0,1-.32-.19h0l-.29-1.15a.27.27,0,0,1,.19-.32h0a.27.27,0,0,1,.32.19h0l.28,1.14a.27.27,0,0,1-.19.32h0Z"/><path class="cls-5" d="M4.71,17.78a.27.27,0,0,1-.32-.19h0l-.28-1.14a.27.27,0,0,1,.19-.32h0a.27.27,0,0,1,.32.19h0l.29,1.12a.27.27,0,0,1-.19.32h0Z"/><path class="cls-5" d="M8.51,27a.27.27,0,0,1,.06-.37h0l1-.67a.27.27,0,0,1,.37.06h0a.27.27,0,0,1-.06.37h0l-1,.67A.27.27,0,0,1,8.51,27Z"/><path class="cls-5" d="M5.09,19.77a.27.27,0,0,1-.22-.37h0l.22-1.16A.27.27,0,0,1,5.4,18h0a.27.27,0,0,1,.22.31h0L5.41,19.5a.27.27,0,0,1-.31.22h0Z"/><path class="cls-5" d="M6.46,4.86a.27.27,0,0,1-.38,0h0l-.88-.77a.27.27,0,0,1,0-.38h0a.27.27,0,0,1,.38,0h0l.88.77a.27.27,0,0,1,0,.38Z"/><path class="cls-5" d="M24.79,20.55a.27.27,0,0,1-.38,0h0l-.88-.77a.27.27,0,0,1,0-.38h0a.27.27,0,0,1,.38,0h0l.88.77a.27.27,0,0,1,0,.38Z"/><path class="cls-5" d="M18.49,17.81a.27.27,0,0,1-.38,0h0L17.22,17a.27.27,0,0,1,0-.38h0a.27.27,0,0,1,.38,0h0l.88.77a.27.27,0,0,1,0,.38Z"/><path d="M12.33,11.75a.27.27,0,0,1-.1-.37h0l.61-1a.27.27,0,0,1,.37-.1h0a.27.27,0,0,1,.1.37h0l-.61,1a.27.27,0,0,1-.37.1Z"/><path d="M8.37,13.28a.27.27,0,0,1,.38,0h0l.75.9a.27.27,0,0,1,0,.38h0a.27.27,0,0,1-.38,0h0l-.75-.9a.27.27,0,0,1,0-.38Z"/><path class="cls-2" d="M10.87,11.65a.27.27,0,0,1-.06.37h0l-1,.68a.27.27,0,0,1-.37-.06h0a.27.27,0,0,1,.06-.37h0l1-.68a.27.27,0,0,1,.37.06Z"/><path class="cls-3" d="M11.75,9.12a.27.27,0,0,0-.38,0h0l-.9.76a.27.27,0,0,0,0,.38h0a.27.27,0,0,0,.38,0h0l.87-.74a.27.27,0,0,0,0-.38h0Z"/><path class="cls-3" d="M14.37,11.94A.27.27,0,0,0,14,11.8h0l-1.06.51a.27.27,0,0,0-.13.35h0a.27.27,0,0,0,.35.13h0l1.06-.51a.27.27,0,0,0,.15-.35v0Z"/><path class="cls-5" d="M11.68,14.47a.27.27,0,0,1-.38,0h0l-.88-.76a.27.27,0,0,1,0-.38h0a.27.27,0,0,1,.38,0l.88.77a.27.27,0,0,1,0,.38h0Z"/><path class="cls-5" d="M7.52,4a.27.27,0,0,1-.26-.28h0V2.57a.27.27,0,0,1,.28-.26h0a.27.27,0,0,1,.26.28h0V3.77A.27.27,0,0,1,7.52,4Z"/><path class="cls-5" d="M10.61,21.18a.27.27,0,0,1,.37.07h0l.64,1a.27.27,0,0,1-.07.37h0a.27.27,0,0,1-.37-.07h0l-.64-1a.27.27,0,0,1,.07-.37Z"/><path class="cls-5" d="M6.63,9.35a.27.27,0,0,1,0,.37h0l-.94.71a.27.27,0,0,1-.37,0h0a.27.27,0,0,1,0-.37h0l.94-.71a.27.27,0,0,1,.37,0h0Z"/><path class="cls-5" d="M29.84,13.89a.27.27,0,0,1,0,.37h0l-.94.71a.27.27,0,0,1-.37,0h0a.27.27,0,0,1,0-.37h0l.94-.71a.27.27,0,0,1,.37,0h0Z"/><path class="cls-5" d="M13.46,28.64a.27.27,0,0,1,.38,0h0l.73.92a.27.27,0,0,1,0,.38h0a.27.27,0,0,1-.38,0h0L13.38,29a.27.27,0,0,1,0-.38h.08Z"/><path class="cls-5" d="M18.67,1.38a.27.27,0,0,1,.38,0l.73.92a.27.27,0,0,1,0,.38h0a.27.27,0,0,1-.38,0h0l-.73-.92a.27.27,0,0,1,0-.38Z"/><path class="cls-5" d="M9.57,8.71a.27.27,0,0,1,.08.37h0l-.64,1a.27.27,0,0,1-.37.08h0a.27.27,0,0,1-.08-.37h0l.64-1a.27.27,0,0,1,.37-.08Z"/></svg>